<svg width="290" height="100" viewBox="0 0 290 100" fill="none" xmlns="http://www.w3.org/2000/svg">
<g clip-path="url(#clip0_11_2)">
<path d="M48.3606 36.7946C48.7949 36.8489 48.4692 38.6405 48.0891 38.6405H33.9194C33.5393 38.6405 33.2679 36.8489 33.5936 36.7946C35.8738 36.4146 37.5568 35.3288 37.3939 31.9085L36.3624 13.667L27.5674 31.5828C26.4273 33.9172 25.5587 36.306 25.3958 37.1747C25.2872 37.8261 24.1471 38.1519 23.2785 38.1519C22.4641 38.1519 21.9212 37.8261 21.5955 37.1747L9.05441 13.3955L8.24006 31.9085C8.07719 35.7088 10.3031 36.5775 12.0404 36.7946C12.4747 36.8489 12.149 38.6405 11.7689 38.6405H0.530838C0.0965161 38.6405 -0.229226 36.8489 0.205097 36.7946C2.53958 36.5232 4.49403 35.7088 4.71119 31.9085L6.44848 0.745883C6.50277 -0.177052 8.5658 -0.231342 9.1087 0.745883L24.8529 30.1712L39.457 0.745883C39.9456 -0.231342 42.1172 -0.177052 42.1715 0.745883L43.9088 31.9085C44.1259 35.7088 46.0804 36.5232 48.3606 36.7946V36.7946ZM92.6615 36.7946C93.4215 36.9032 93.2044 38.6405 92.5529 38.6405H78.2202C77.5145 38.6405 77.4602 36.9032 78.0574 36.7946C80.0661 36.4146 82.2377 35.7088 80.229 31.0399L79.6318 29.6826C79.0889 28.3796 78.1659 28.2711 76.5372 28.2711H65.462C63.8333 28.2711 62.9104 28.3796 62.3675 29.6826L61.8246 31.0399C59.9244 35.7088 61.9874 36.4146 64.5934 36.7946C65.2991 36.9032 65.1363 38.6405 64.4305 38.6405H52.7038C52.0523 38.6405 51.8894 36.9032 52.5409 36.7946C54.7668 36.4146 56.0698 35.6545 58.0785 31.0399L67.2536 9.97523C69.3709 5.19768 70.0224 2.97178 70.0224 0.908754C70.0224 0.583012 73.8227 -0.285632 73.9856 0.0944001L87.2324 30.9856C89.1869 35.6002 90.4898 36.4689 92.6615 36.7946V36.7946ZM76.1572 25.2308C76.9173 25.2308 77.7316 25.1222 77.4059 24.3622L71.0539 9.16088L64.6477 24.3622C64.3219 25.1222 65.1363 25.2308 65.8963 25.2308H76.1572V25.2308ZM136.582 37.2832C137.017 37.2832 136.908 38.7491 136.582 38.8577C133.162 39.9978 128.439 39.8349 125.181 35.6545L116.821 24.9051C114.486 21.8648 111.717 21.4305 107.917 21.3762V31.9085C107.917 35.7088 110.523 36.3603 113.998 36.7946C114.378 36.8489 114.106 38.6405 113.672 38.6405H97.2218C96.7875 38.6405 96.4618 36.8489 96.8961 36.7946C99.6649 36.4146 101.402 35.3288 101.402 31.9085V7.69504C101.402 4.11188 99.502 3.08036 96.8961 2.37459C96.4618 2.26601 96.7332 0.474432 97.2218 0.528722C99.3392 0.800173 101.728 0.854463 103.465 0.854463C107.483 0.854463 111.229 0.528722 113.835 0.528722C122.033 0.528722 127.516 3.89472 127.516 10.5724C127.516 16.8701 122.413 19.9646 117.852 20.2361V20.5075C120.024 20.5075 121.598 21.4305 123.987 24.4164L132.076 34.5687C133.759 36.686 135.388 37.2832 136.582 37.2832V37.2832ZM109.491 18.8788C117.581 18.8788 120.675 17.4673 120.675 12.0383C120.675 6.2292 116.983 3.35182 112.152 3.35182C108.949 3.35182 107.917 4.65478 107.917 7.69504V18.8788H109.491V18.8788ZM140.383 38.6405C139.948 38.6405 139.623 36.8489 140.057 36.7946C142.826 36.4146 144.563 35.3288 144.563 31.9085V7.3693C144.563 3.94901 142.826 2.8632 140.057 2.48317C139.623 2.42888 139.948 0.637302 140.383 0.637302H155.258C155.692 0.637302 156.018 2.42888 155.584 2.48317C153.249 2.80891 151.078 3.56898 151.078 7.3693V31.9085C151.078 35.7088 153.249 36.4689 155.584 36.7946C156.018 36.8489 155.692 38.6405 155.258 38.6405H140.383V38.6405ZM199.885 36.7946C200.645 36.9032 200.428 38.6405 199.776 38.6405H185.444C184.738 38.6405 184.683 36.9032 185.281 36.7946C187.289 36.4146 189.461 35.7088 187.452 31.0399L186.855 29.6826C186.312 28.3796 185.389 28.2711 183.761 28.2711H172.685C171.057 28.2711 170.134 28.3796 169.591 29.6826L169.048 31.0399C167.148 35.7088 169.211 36.4146 171.817 36.7946C172.522 36.9032 172.36 38.6405 171.654 38.6405H159.927C159.276 38.6405 159.113 36.9032 159.764 36.7946C161.99 36.4146 163.293 35.6545 165.302 31.0399L174.477 9.97523C176.594 5.19768 177.246 2.97178 177.246 0.908754C177.246 0.583012 181.046 -0.285632 181.209 0.0944001L194.456 30.9856C196.41 35.6002 197.713 36.4689 199.885 36.7946V36.7946ZM183.381 25.2308C184.141 25.2308 184.955 25.1222 184.629 24.3622L178.277 9.16088L171.871 24.3622C171.545 25.1222 172.36 25.2308 173.12 25.2308H183.381V25.2308ZM239.897 39.1834C238.974 39.1834 238.485 38.8034 237.888 38.1519L212.046 11.1153V31.7456C212.046 35.4374 214.217 36.0346 217.312 36.7946C217.746 36.9032 217.529 38.6405 216.986 38.6405H204.119C203.685 38.6405 203.359 36.9575 203.848 36.7946C206.128 36.0346 208.3 35.6002 208.3 31.7456V10.681C208.3 6.82639 207.703 4.98053 206.291 3.08037C205.802 2.42888 205.314 1.99456 205.314 1.83169C205.314 1.34308 205.64 0.637302 206.4 0.637302H210.417C210.96 0.637302 211.34 0.691592 211.72 1.12591L237.019 27.891V7.47788C237.019 3.62327 234.576 3.18894 231.753 2.48317C231.319 2.37459 231.536 0.637302 232.079 0.637302H244.946C245.38 0.637302 245.651 2.37459 245.217 2.48317C242.828 3.18894 240.765 3.62327 240.765 7.47788V28.5968C240.765 32.18 240.874 36.1431 241.417 38.1519C241.634 38.9662 240.765 39.1834 239.897 39.1834V39.1834ZM289.518 36.7946C290.278 36.9032 290.061 38.6405 289.409 38.6405H275.077C274.371 38.6405 274.317 36.9032 274.914 36.7946C276.923 36.4146 279.094 35.7088 277.086 31.0399L276.488 29.6826C275.945 28.3796 275.023 28.2711 273.394 28.2711H262.319C260.69 28.2711 259.767 28.3796 259.224 29.6826L258.681 31.0399C256.781 35.7088 258.844 36.4146 261.45 36.7946C262.156 36.9032 261.993 38.6405 261.287 38.6405H249.56C248.909 38.6405 248.746 36.9032 249.398 36.7946C251.623 36.4146 252.926 35.6545 254.935 31.0399L264.11 9.97523C266.227 5.19768 266.879 2.97178 266.879 0.908754C266.879 0.583012 270.679 -0.285632 270.842 0.0944001L284.089 30.9856C286.043 35.6002 287.346 36.4689 289.518 36.7946V36.7946ZM273.014 25.2308C273.774 25.2308 274.588 25.1222 274.262 24.3622L267.91 9.16088L261.504 24.3622C261.178 25.1222 261.993 25.2308 262.753 25.2308H273.014V25.2308Z" fill="#111111"/>
<path d="M0.53295 86.3115C0.0132919 86.3634 -0.194571 84.5446 0.221155 84.4407C3.23517 83.6612 5.57363 83.1935 5.57363 79.348V56.2752C5.57363 52.9494 3.44304 52.066 1.20851 51.4944C0.792779 51.3904 1.05261 49.6756 1.46833 49.7275C5.26184 50.1432 11.8095 50.0393 14.9794 50.0393C19.7083 50.0393 23.1381 49.8315 27.3993 49.7275C28.6465 49.7275 28.6465 50.559 28.3866 51.7542L27.1394 56.6909C26.9835 57.4185 25.6844 57.4185 25.4765 56.6909C24.6971 54.1446 23.1381 52.6896 16.6424 52.6896C13.0047 52.6896 11.8095 53.625 11.8095 56.3272V64.7976C11.8095 66.1487 12.4851 66.4085 13.5244 66.4085H14.6676C18.8769 66.4085 22.5145 65.9928 24.6451 64.0701C25.1647 63.6024 26.308 63.7063 25.8403 64.7456L22.8782 71.2933C22.4625 72.2287 21.683 72.1248 21.1114 71.3453C19.9162 69.6824 17.2659 69.0068 14.2519 69.0068H13.5244C12.4851 69.0068 11.8095 69.2667 11.8095 70.6178V79.348C11.8095 82.3101 13.0567 83.4014 17.3699 83.4014C25.2167 83.4014 28.3347 79.8157 29.5818 77.841C29.9456 77.2694 31.3487 77.5292 31.3487 78.4126C31.3487 81.0629 29.1141 86.3115 25.8403 86.3115C22.9302 86.1556 20.0721 85.9997 15.707 85.9997C10.9261 85.9997 5.26184 85.8438 0.53295 86.3115V86.3115ZM69.9593 86.7272C69.0759 86.7272 68.6082 86.3634 68.0365 85.7398L43.3008 59.8609V79.6079C43.3008 83.1415 45.3794 83.7132 48.3415 84.4407C48.7572 84.5446 48.5494 86.2075 48.0297 86.2075H35.7138C35.2981 86.2075 34.9863 84.5966 35.454 84.4407C37.6365 83.7132 39.7152 83.2974 39.7152 79.6079V59.4451C39.7152 55.7556 39.1435 53.9887 37.7924 52.1699C37.3247 51.5463 36.8571 51.1306 36.8571 50.9747C36.8571 50.507 37.1688 49.8315 37.8964 49.8315H41.7418C42.2615 49.8315 42.6253 49.8834 42.989 50.2991L67.2051 75.9183V56.3791C67.2051 52.6896 64.8666 52.2738 62.1644 51.5983C61.7487 51.4944 61.9565 49.8315 62.4762 49.8315H74.7921C75.2078 49.8315 75.4676 51.4944 75.0519 51.5983C72.7654 52.2738 70.7907 52.6896 70.7907 56.3791V76.5938C70.7907 80.0236 70.8947 83.8171 71.4143 85.7398C71.6222 86.5193 70.7907 86.7272 69.9593 86.7272V86.7272ZM117.612 84.9084C118.028 84.9084 117.924 86.3114 117.612 86.4154C114.338 87.5067 109.817 87.3508 106.699 83.3494L98.6964 73.0602C96.4618 70.1501 93.8116 69.7344 90.174 69.6824V79.7638C90.174 83.4014 92.6683 84.025 95.9941 84.4407C96.3579 84.4926 96.0981 86.2075 95.6823 86.2075H79.9367C79.521 86.2075 79.2092 84.4926 79.6249 84.4407C82.2752 84.0769 83.9381 83.0376 83.9381 79.7638V56.587C83.9381 53.1573 82.1193 52.1699 79.6249 51.4944C79.2092 51.3904 79.469 49.6756 79.9367 49.7275C81.9634 49.9874 84.2499 50.0393 85.9128 50.0393C89.7582 50.0393 93.3439 49.7275 95.8382 49.7275C103.685 49.7275 108.934 52.9494 108.934 59.3412C108.934 65.3692 104.049 68.3313 99.6837 68.5911V68.8509C101.762 68.8509 103.269 69.7344 105.556 72.5925L113.299 82.3101C114.91 84.3367 116.469 84.9084 117.612 84.9084V84.9084ZM91.681 67.292C99.4239 67.292 102.386 65.9409 102.386 60.7443C102.386 55.1839 98.8523 52.4297 94.2273 52.4297C91.1613 52.4297 90.174 53.6769 90.174 56.587V67.292H91.681V67.292ZM121.25 86.2075C120.834 86.2075 120.522 84.4926 120.938 84.4407C123.588 84.0769 125.251 83.0376 125.251 79.7638V56.2752C125.251 53.0014 123.588 51.9621 120.938 51.5983C120.522 51.5463 120.834 49.8315 121.25 49.8315H135.488C135.904 49.8315 136.216 51.5463 135.8 51.5983C133.565 51.9101 131.487 52.6376 131.487 56.2752V79.7638C131.487 83.4014 133.565 84.1289 135.8 84.4407C136.216 84.4926 135.904 86.2075 135.488 86.2075H121.25ZM187.09 95.4055C188.026 94.9378 188.493 96.2889 188.233 96.6526C186.467 99.095 178.724 99.6147 174.359 96.3409L165.68 89.8971C163.446 88.2342 161.211 87.039 159.6 87.039C148.843 86.987 140.945 78.9843 140.945 68.2273C140.945 57.7303 148.428 49 159.808 49C170.669 49 178.568 56.9508 178.568 67.7597C178.568 75.5545 174.514 82.362 167.759 85.3761C168.746 85.532 169.11 85.7918 169.682 86.2075L178.36 92.6513C182.621 95.8212 185.219 96.3409 187.09 95.4055V95.4055ZM147.18 65.3173C147.18 75.9183 154.3 83.5053 161.731 83.5053C166.304 83.5053 172.384 80.4913 172.384 70.6697C172.384 60.1726 165.265 52.5337 157.781 52.5337C153.208 52.5337 147.18 55.5477 147.18 65.3173V65.3173ZM203.563 87.039C196.236 87.039 188.026 83.1415 188.026 72.5925V56.2752C188.026 53.0014 186.363 51.9101 183.816 51.5983C183.401 51.5463 183.712 49.8315 184.128 49.8315H198.315C198.731 49.8315 199.042 51.5463 198.627 51.5983C196.548 51.8581 194.469 52.6376 194.469 56.2752V72.8523C194.469 80.1275 198.679 83.5053 204.187 83.5053C209.851 83.5053 214.372 80.1275 214.372 72.8523V56.2752C214.372 52.8974 212.45 51.9621 209.903 51.5983C209.539 51.5463 209.799 49.8315 210.215 49.8315H221.907C222.271 49.8315 222.583 51.5463 222.167 51.5983C220.089 51.8581 218.01 52.6376 218.01 56.2752V72.5405C218.01 82.1022 211.826 87.039 203.563 87.039ZM226.013 86.3115C225.493 86.3634 225.285 84.5446 225.701 84.4407C228.715 83.6612 231.053 83.1935 231.053 79.348V56.2752C231.053 52.9494 228.923 52.066 226.688 51.4944C226.272 51.3904 226.532 49.6756 226.948 49.7275C230.741 50.1432 237.289 50.0393 240.459 50.0393C245.188 50.0393 248.618 49.8315 252.879 49.7275C254.126 49.7275 254.126 50.559 253.866 51.7542L252.619 56.6909C252.463 57.4185 251.164 57.4185 250.956 56.6909C250.177 54.1446 248.618 52.6896 242.122 52.6896C238.484 52.6896 237.289 53.625 237.289 56.3272V64.7976C237.289 66.1487 237.965 66.4085 239.004 66.4085H240.147C244.357 66.4085 247.994 65.9928 250.125 64.0701C250.644 63.6024 251.788 63.7063 251.32 64.7456L248.358 71.2933C247.942 72.2287 247.163 72.1248 246.591 71.3453C245.396 69.6824 242.746 69.0068 239.732 69.0068H239.004C237.965 69.0068 237.289 69.2667 237.289 70.6178V79.348C237.289 82.3101 238.536 83.4014 242.85 83.4014C250.696 83.4014 253.814 79.8157 255.062 77.841C255.425 77.2694 256.828 77.5292 256.828 78.4126C256.828 81.0629 254.594 86.3115 251.32 86.3115C248.41 86.1556 245.552 85.9997 241.187 85.9997C236.406 85.9997 230.742 85.8438 226.013 86.3115V86.3115ZM285.825 86.5193C282.967 85.7918 277.667 85.9477 272.522 85.9477C268.001 85.9477 263.948 86.0516 260.986 86.3634C260.518 86.4154 259.998 85.2202 260.258 84.8044L281.408 53.1053L272.21 53.0533C266.338 53.0014 264.467 54.5084 263.116 56.1193C262.545 56.7949 261.141 56.3791 261.453 55.4438L263.324 50.1952C263.636 49.3118 264.675 49.3638 265.299 49.5197C268.157 50.2472 273.353 50.0913 277.926 50.0913C282.188 50.0913 286.241 49.9874 289.203 49.6756C289.671 49.6236 290.19 50.8188 289.931 51.2345L268.78 82.9337L278.914 82.9856C284.786 83.0376 286.657 81.5306 288.008 79.9197C288.579 79.2441 289.983 79.6598 289.671 80.5952L287.8 85.8438C287.488 86.7272 286.449 86.6752 285.825 86.5193V86.5193Z" fill="#111111"/>
</g>
<defs>
<clipPath id="clip0_11_2">
<rect width="290" height="99.1043" fill="white"/>
</clipPath>
</defs>
</svg>
